<svg width="200" height="200" xmlns="http://www.w3.org/2000/svg">
  <defs>
    <pattern id="techPattern" x="0" y="0" width="100" height="100" patternUnits="userSpaceOnUse">
      <!-- React Logo -->
      <g transform="translate(10, 10)">
        <circle cx="15" cy="15" r="3" fill="#61DAFB" opacity="0.6"/>
        <ellipse cx="15" cy="15" rx="12" ry="5" fill="none" stroke="#61DAFB" stroke-width="1" opacity="0.4"/>
        <ellipse cx="15" cy="15" rx="12" ry="5" fill="none" stroke="#61DAFB" stroke-width="1" opacity="0.4" transform="rotate(60 15 15)"/>
        <ellipse cx="15" cy="15" rx="12" ry="5" fill="none" stroke="#61DAFB" stroke-width="1" opacity="0.4" transform="rotate(120 15 15)"/>
      </g>
      
      <!-- JavaScript Logo -->
      <g transform="translate(60, 10)">
        <rect x="5" y="5" width="20" height="20" rx="2" fill="#F7DF1E" opacity="0.5"/>
        <text x="15" y="20" font-family="Arial" font-size="14" font-weight="bold" fill="#000" text-anchor="middle">JS</text>
      </g>
      
      <!-- Python Logo -->
      <g transform="translate(10, 60)">
        <path d="M15,5 L20,5 Q25,5 25,10 L25,15 L20,15 L20,12 L15,12 L15,8 Q15,5 12,5 L10,5 Q5,5 5,10 L5,15 Q5,20 10,20 L15,20 L15,23 L10,23 Q5,23 5,18 L5,10 Q5,5 10,5 Z" fill="#3776AB" opacity="0.5"/>
        <circle cx="8" cy="8" r="1.5" fill="#FFD43B"/>
      </g>
      
      <!-- HTML5 Logo -->
      <g transform="translate(60, 60)">
        <path d="M12,5 L10,25 L17,27 L24,25 L22,5 Z M13,10 L21,10 L20.5,15 L17,16 L13.5,15 L13.3,13 L20.3,13 L20.5,11 L13.5,11 Z" fill="#E34F26" opacity="0.5"/>
      </g>
      
      <!-- Code Brackets -->
      <g transform="translate(35, 35)">
        <text x="0" y="15" font-family="monospace" font-size="20" fill="#00D9FF" opacity="0.4">&lt;/&gt;</text>
      </g>
    </pattern>
  </defs>
  
  <rect width="200" height="200" fill="url(#techPattern)"/>
</svg>
